<?xml version="1.0" encoding="UTF-8" standalone="no"?>
<!DOCTYPE svg PUBLIC "-//W3C//DTD SVG 1.1//EN"
 "http://www.w3.org/Graphics/SVG/1.1/DTD/svg11.dtd">
<!-- Generated by graphviz version 2.38.0 (20140413.2041)
 -->
<!-- Title: controllers_diagram Pages: 1 -->
<svg width="654pt" height="660pt"
 viewBox="0.00 0.00 654.00 660.00" xmlns="http://www.w3.org/2000/svg" xmlns:xlink="http://www.w3.org/1999/xlink">
<g id="graph0" class="graph" transform="scale(1 1) rotate(0) translate(256 386)">
<title>controllers_diagram</title>
<polygon fill="none" stroke="none" points="-256,274 -256,-386 398,-386 398,274 -256,274"/>
<!-- _diagram_info -->
<g id="node1" class="node"><title>_diagram_info</title>
<text text-anchor="start" x="188" y="-243.6" font-family="Times,serif" font-size="13.00">Controllers diagram</text>
<text text-anchor="start" x="188" y="-229.6" font-family="Times,serif" font-size="13.00">Date: Jun 20 2017 &#45; 00:47</text>
<text text-anchor="start" x="188" y="-215.6" font-family="Times,serif" font-size="13.00">Migration version: 20170616090756</text>
<text text-anchor="start" x="188" y="-201.6" font-family="Times,serif" font-size="13.00">Generated by RailRoady 1.5.3</text>
<text text-anchor="start" x="188" y="-187.6" font-family="Times,serif" font-size="13.00">http://railroady.prestonlee.com</text>
</g>
<!-- ApplicationController -->
<g id="node2" class="node"><title>ApplicationController</title>
<path fill="none" stroke="black" d="M120,269.5C120,269.5 232,269.5 232,269.5 238,269.5 244,263.5 244,257.5 244,257.5 244,158.5 244,158.5 244,152.5 238,146.5 232,146.5 232,146.5 120,146.5 120,146.5 114,146.5 108,152.5 108,158.5 108,158.5 108,257.5 108,257.5 108,263.5 114,269.5 120,269.5"/>
<text text-anchor="middle" x="176" y="161.7" font-family="Times,serif" font-size="14.00">ApplicationController</text>
<polyline fill="none" stroke="black" points="108,169.5 244,169.5 "/>
<text text-anchor="start" x="116" y="184.7" font-family="Times,serif" font-size="14.00">current_user</text>
<text text-anchor="start" x="116" y="199.7" font-family="Times,serif" font-size="14.00">logged_in?</text>
<text text-anchor="start" x="116" y="214.7" font-family="Times,serif" font-size="14.00">require_user</text>
<polyline fill="none" stroke="black" points="108,222.5 244,222.5 "/>
<polyline fill="none" stroke="black" points="108,246.5 244,246.5 "/>
<text text-anchor="start" x="116" y="261.7" font-family="Times,serif" font-size="14.00">_layout</text>
</g>
<!-- OffersController -->
<g id="node3" class="node"><title>OffersController</title>
<path fill="none" stroke="black" d="M-186.5,-198.5C-186.5,-198.5 -103.5,-198.5 -103.5,-198.5 -97.5,-198.5 -91.5,-204.5 -91.5,-210.5 -91.5,-210.5 -91.5,-369.5 -91.5,-369.5 -91.5,-375.5 -97.5,-381.5 -103.5,-381.5 -103.5,-381.5 -186.5,-381.5 -186.5,-381.5 -192.5,-381.5 -198.5,-375.5 -198.5,-369.5 -198.5,-369.5 -198.5,-210.5 -198.5,-210.5 -198.5,-204.5 -192.5,-198.5 -186.5,-198.5"/>
<text text-anchor="middle" x="-145" y="-366.3" font-family="Times,serif" font-size="14.00">OffersController</text>
<polyline fill="none" stroke="black" points="-198.5,-358.5 -91.5,-358.5 "/>
<text text-anchor="start" x="-190.5" y="-343.3" font-family="Times,serif" font-size="14.00">create</text>
<text text-anchor="start" x="-190.5" y="-328.3" font-family="Times,serif" font-size="14.00">destroy</text>
<text text-anchor="start" x="-190.5" y="-313.3" font-family="Times,serif" font-size="14.00">index</text>
<text text-anchor="start" x="-190.5" y="-298.3" font-family="Times,serif" font-size="14.00">new</text>
<text text-anchor="start" x="-190.5" y="-283.3" font-family="Times,serif" font-size="14.00">show</text>
<polyline fill="none" stroke="black" points="-198.5,-275.5 -91.5,-275.5 "/>
<polyline fill="none" stroke="black" points="-198.5,-251.5 -91.5,-251.5 "/>
<text text-anchor="start" x="-190.5" y="-236.3" font-family="Times,serif" font-size="14.00">_layout</text>
<text text-anchor="start" x="-190.5" y="-221.3" font-family="Times,serif" font-size="14.00">offer_params</text>
<text text-anchor="start" x="-190.5" y="-206.3" font-family="Times,serif" font-size="14.00">set_offer</text>
</g>
<!-- StaticPagesController -->
<g id="node4" class="node"><title>StaticPagesController</title>
<path fill="none" stroke="black" d="M-240,-55C-240,-55 -130,-55 -130,-55 -124,-55 -118,-61 -118,-67 -118,-67 -118,-151 -118,-151 -118,-157 -124,-163 -130,-163 -130,-163 -240,-163 -240,-163 -246,-163 -252,-157 -252,-151 -252,-151 -252,-67 -252,-67 -252,-61 -246,-55 -240,-55"/>
<text text-anchor="middle" x="-185" y="-147.8" font-family="Times,serif" font-size="14.00">StaticPagesController</text>
<polyline fill="none" stroke="black" points="-252,-140 -118,-140 "/>
<text text-anchor="start" x="-244" y="-124.8" font-family="Times,serif" font-size="14.00">home</text>
<text text-anchor="start" x="-244" y="-109.8" font-family="Times,serif" font-size="14.00">settings</text>
<polyline fill="none" stroke="black" points="-252,-102 -118,-102 "/>
<polyline fill="none" stroke="black" points="-252,-78 -118,-78 "/>
<text text-anchor="start" x="-244" y="-62.8" font-family="Times,serif" font-size="14.00">_layout</text>
</g>
<!-- ApplicationsController -->
<g id="node5" class="node"><title>ApplicationsController</title>
<path fill="none" stroke="black" d="M120.5,107.5C120.5,107.5 237.5,107.5 237.5,107.5 243.5,107.5 249.5,101.5 249.5,95.5 249.5,95.5 249.5,-123.5 249.5,-123.5 249.5,-129.5 243.5,-135.5 237.5,-135.5 237.5,-135.5 120.5,-135.5 120.5,-135.5 114.5,-135.5 108.5,-129.5 108.5,-123.5 108.5,-123.5 108.5,95.5 108.5,95.5 108.5,101.5 114.5,107.5 120.5,107.5"/>
<text text-anchor="middle" x="179" y="-120.3" font-family="Times,serif" font-size="14.00">ApplicationsController</text>
<polyline fill="none" stroke="black" points="108.5,-112.5 249.5,-112.5 "/>
<text text-anchor="start" x="116.5" y="-97.3" font-family="Times,serif" font-size="14.00">change_negative</text>
<text text-anchor="start" x="116.5" y="-82.3" font-family="Times,serif" font-size="14.00">change_pending</text>
<text text-anchor="start" x="116.5" y="-67.3" font-family="Times,serif" font-size="14.00">change_positive</text>
<text text-anchor="start" x="116.5" y="-52.3" font-family="Times,serif" font-size="14.00">create</text>
<text text-anchor="start" x="116.5" y="-37.3" font-family="Times,serif" font-size="14.00">destroy</text>
<text text-anchor="start" x="116.5" y="-22.3" font-family="Times,serif" font-size="14.00">index</text>
<text text-anchor="start" x="116.5" y="-7.3" font-family="Times,serif" font-size="14.00">new</text>
<text text-anchor="start" x="116.5" y="7.7" font-family="Times,serif" font-size="14.00">show</text>
<text text-anchor="start" x="116.5" y="22.7" font-family="Times,serif" font-size="14.00">update</text>
<polyline fill="none" stroke="black" points="108.5,30.5 249.5,30.5 "/>
<polyline fill="none" stroke="black" points="108.5,54.5 249.5,54.5 "/>
<text text-anchor="start" x="116.5" y="69.7" font-family="Times,serif" font-size="14.00">_layout</text>
<text text-anchor="start" x="116.5" y="84.7" font-family="Times,serif" font-size="14.00">application_params</text>
<text text-anchor="start" x="116.5" y="99.7" font-family="Times,serif" font-size="14.00">set_application</text>
</g>
<!-- UsersController -->
<g id="node6" class="node"><title>UsersController</title>
<path fill="none" stroke="black" d="M-78,125.5C-78,125.5 62,125.5 62,125.5 68,125.5 74,119.5 74,113.5 74,113.5 74,-105.5 74,-105.5 74,-111.5 68,-117.5 62,-117.5 62,-117.5 -78,-117.5 -78,-117.5 -84,-117.5 -90,-111.5 -90,-105.5 -90,-105.5 -90,113.5 -90,113.5 -90,119.5 -84,125.5 -78,125.5"/>
<text text-anchor="middle" x="-8" y="-102.3" font-family="Times,serif" font-size="14.00">UsersController</text>
<polyline fill="none" stroke="black" points="-90,-94.5 74,-94.5 "/>
<text text-anchor="start" x="-82" y="-79.3" font-family="Times,serif" font-size="14.00">create</text>
<text text-anchor="start" x="-82" y="-64.3" font-family="Times,serif" font-size="14.00">destroy</text>
<text text-anchor="start" x="-82" y="-49.3" font-family="Times,serif" font-size="14.00">edit</text>
<text text-anchor="start" x="-82" y="-34.3" font-family="Times,serif" font-size="14.00">index</text>
<text text-anchor="start" x="-82" y="-19.3" font-family="Times,serif" font-size="14.00">make_user_a_normal_user</text>
<text text-anchor="start" x="-82" y="-4.3" font-family="Times,serif" font-size="14.00">make_user_an_admin</text>
<text text-anchor="start" x="-82" y="10.7" font-family="Times,serif" font-size="14.00">new</text>
<text text-anchor="start" x="-82" y="25.7" font-family="Times,serif" font-size="14.00">show</text>
<text text-anchor="start" x="-82" y="40.7" font-family="Times,serif" font-size="14.00">update</text>
<polyline fill="none" stroke="black" points="-90,48.5 74,48.5 "/>
<polyline fill="none" stroke="black" points="-90,72.5 74,72.5 "/>
<text text-anchor="start" x="-82" y="87.7" font-family="Times,serif" font-size="14.00">_layout</text>
<text text-anchor="start" x="-82" y="102.7" font-family="Times,serif" font-size="14.00">set_user</text>
<text text-anchor="start" x="-82" y="117.7" font-family="Times,serif" font-size="14.00">user_params</text>
</g>
<!-- SessionsController -->
<g id="node7" class="node"><title>SessionsController</title>
<path fill="none" stroke="black" d="M-239.5,107.5C-239.5,107.5 -144.5,107.5 -144.5,107.5 -138.5,107.5 -132.5,101.5 -132.5,95.5 -132.5,95.5 -132.5,-3.5 -132.5,-3.5 -132.5,-9.5 -138.5,-15.5 -144.5,-15.5 -144.5,-15.5 -239.5,-15.5 -239.5,-15.5 -245.5,-15.5 -251.5,-9.5 -251.5,-3.5 -251.5,-3.5 -251.5,95.5 -251.5,95.5 -251.5,101.5 -245.5,107.5 -239.5,107.5"/>
<text text-anchor="middle" x="-192" y="-0.3" font-family="Times,serif" font-size="14.00">SessionsController</text>
<polyline fill="none" stroke="black" points="-251.5,7.5 -132.5,7.5 "/>
<text text-anchor="start" x="-243.5" y="22.7" font-family="Times,serif" font-size="14.00">create</text>
<text text-anchor="start" x="-243.5" y="37.7" font-family="Times,serif" font-size="14.00">destroy</text>
<text text-anchor="start" x="-243.5" y="52.7" font-family="Times,serif" font-size="14.00">new</text>
<polyline fill="none" stroke="black" points="-251.5,60.5 -132.5,60.5 "/>
<polyline fill="none" stroke="black" points="-251.5,84.5 -132.5,84.5 "/>
<text text-anchor="start" x="-243.5" y="99.7" font-family="Times,serif" font-size="14.00">_layout</text>
</g>
<!-- DivisionsController -->
<g id="node8" class="node"><title>DivisionsController</title>
<path fill="none" stroke="black" d="M-42,-162.5C-42,-162.5 58,-162.5 58,-162.5 64,-162.5 70,-168.5 70,-174.5 70,-174.5 70,-333.5 70,-333.5 70,-339.5 64,-345.5 58,-345.5 58,-345.5 -42,-345.5 -42,-345.5 -48,-345.5 -54,-339.5 -54,-333.5 -54,-333.5 -54,-174.5 -54,-174.5 -54,-168.5 -48,-162.5 -42,-162.5"/>
<text text-anchor="middle" x="8" y="-330.3" font-family="Times,serif" font-size="14.00">DivisionsController</text>
<polyline fill="none" stroke="black" points="-54,-322.5 70,-322.5 "/>
<text text-anchor="start" x="-46" y="-307.3" font-family="Times,serif" font-size="14.00">create</text>
<text text-anchor="start" x="-46" y="-292.3" font-family="Times,serif" font-size="14.00">destroy</text>
<text text-anchor="start" x="-46" y="-277.3" font-family="Times,serif" font-size="14.00">index</text>
<text text-anchor="start" x="-46" y="-262.3" font-family="Times,serif" font-size="14.00">new</text>
<text text-anchor="start" x="-46" y="-247.3" font-family="Times,serif" font-size="14.00">show</text>
<polyline fill="none" stroke="black" points="-54,-239.5 70,-239.5 "/>
<polyline fill="none" stroke="black" points="-54,-215.5 70,-215.5 "/>
<text text-anchor="start" x="-46" y="-200.3" font-family="Times,serif" font-size="14.00">_layout</text>
<text text-anchor="start" x="-46" y="-185.3" font-family="Times,serif" font-size="14.00">division_params</text>
<text text-anchor="start" x="-46" y="-170.3" font-family="Times,serif" font-size="14.00">set_division</text>
</g>
</g>
</svg>
