<?xml version="1.0" encoding="UTF-8" standalone="no"?>
<!DOCTYPE svg PUBLIC "-//W3C//DTD SVG 1.1//EN"
 "http://www.w3.org/Graphics/SVG/1.1/DTD/svg11.dtd">
<!-- Generated by graphviz version 2.38.0 (20140413.2041)
 -->
<!-- Title: models_diagram Pages: 1 -->
<svg width="870pt" height="408pt"
 viewBox="0.00 0.00 869.50 408.00" xmlns="http://www.w3.org/2000/svg" xmlns:xlink="http://www.w3.org/1999/xlink">
<g id="graph0" class="graph" transform="scale(1 1) rotate(0) translate(4 404)">
<title>models_diagram</title>
<polygon fill="none" stroke="none" points="-4,4 -4,-404 865.5,-404 865.5,4 -4,4"/>
<!-- _diagram_info -->
<g id="node1" class="node"><title>_diagram_info</title>
<text text-anchor="start" x="8" y="-341.1" font-family="Times,serif" font-size="13.00">Models diagram</text>
<text text-anchor="start" x="8" y="-327.1" font-family="Times,serif" font-size="13.00">Date: Jun 20 2017 &#45; 00:47</text>
<text text-anchor="start" x="8" y="-313.1" font-family="Times,serif" font-size="13.00">Migration version: 20170616090756</text>
<text text-anchor="start" x="8" y="-299.1" font-family="Times,serif" font-size="13.00">Generated by RailRoady 1.5.3</text>
<text text-anchor="start" x="8" y="-285.1" font-family="Times,serif" font-size="13.00">http://railroady.prestonlee.com</text>
</g>
<!-- Application -->
<g id="node2" class="node"><title>Application</title>
<path fill="none" stroke="black" d="M260,-0.5C260,-0.5 360,-0.5 360,-0.5 366,-0.5 372,-6.5 372,-12.5 372,-12.5 372,-184.5 372,-184.5 372,-190.5 366,-196.5 360,-196.5 360,-196.5 260,-196.5 260,-196.5 254,-196.5 248,-190.5 248,-184.5 248,-184.5 248,-12.5 248,-12.5 248,-6.5 254,-0.5 260,-0.5"/>
<text text-anchor="middle" x="310" y="-181.3" font-family="Times,serif" font-size="14.00">Application</text>
<polyline fill="none" stroke="black" points="248,-173.5 372,-173.5 "/>
<text text-anchor="start" x="256" y="-158.3" font-family="Times,serif" font-size="14.00">id :INTEGER</text>
<text text-anchor="start" x="256" y="-143.3" font-family="Times,serif" font-size="14.00">jobType :varchar</text>
<text text-anchor="start" x="256" y="-128.3" font-family="Times,serif" font-size="14.00">division :varchar</text>
<text text-anchor="start" x="256" y="-113.3" font-family="Times,serif" font-size="14.00">technologies :text</text>
<text text-anchor="start" x="256" y="-98.3" font-family="Times,serif" font-size="14.00">created_at :time</text>
<text text-anchor="start" x="256" y="-83.3" font-family="Times,serif" font-size="14.00">cv :varchar</text>
<text text-anchor="start" x="256" y="-68.3" font-family="Times,serif" font-size="14.00">certificates :varchar</text>
<text text-anchor="start" x="256" y="-53.3" font-family="Times,serif" font-size="14.00">user_id :integer</text>
<text text-anchor="start" x="256" y="-38.3" font-family="Times,serif" font-size="14.00">pending :boolean</text>
<text text-anchor="start" x="256" y="-23.3" font-family="Times,serif" font-size="14.00">positive :boolean</text>
<text text-anchor="start" x="256" y="-8.3" font-family="Times,serif" font-size="14.00">negative :boolean</text>
</g>
<!-- Offer -->
<g id="node3" class="node"><title>Offer</title>
<path fill="none" stroke="black" d="M418,-286C418,-286 518,-286 518,-286 524,-286 530,-292 530,-298 530,-298 530,-335 530,-335 530,-341 524,-347 518,-347 518,-347 418,-347 418,-347 412,-347 406,-341 406,-335 406,-335 406,-298 406,-298 406,-292 412,-286 418,-286"/>
<text text-anchor="middle" x="468" y="-331.8" font-family="Times,serif" font-size="14.00">Offer</text>
<polyline fill="none" stroke="black" points="406,-324 530,-324 "/>
<text text-anchor="start" x="414" y="-308.8" font-family="Times,serif" font-size="14.00">id :INTEGER</text>
<text text-anchor="start" x="414" y="-293.8" font-family="Times,serif" font-size="14.00">offerName :varchar</text>
</g>
<!-- ApplicationRecord -->
<g id="node4" class="node"><title>ApplicationRecord</title>
<ellipse fill="none" stroke="black" cx="625" cy="-316.5" rx="77.1866" ry="18"/>
<text text-anchor="middle" x="625" y="-312.8" font-family="Times,serif" font-size="14.00">ApplicationRecord</text>
</g>
<!-- Division -->
<g id="node5" class="node"><title>Division</title>
<path fill="none" stroke="black" d="M732.5,-286C732.5,-286 849.5,-286 849.5,-286 855.5,-286 861.5,-292 861.5,-298 861.5,-298 861.5,-335 861.5,-335 861.5,-341 855.5,-347 849.5,-347 849.5,-347 732.5,-347 732.5,-347 726.5,-347 720.5,-341 720.5,-335 720.5,-335 720.5,-298 720.5,-298 720.5,-292 726.5,-286 732.5,-286"/>
<text text-anchor="middle" x="791" y="-331.8" font-family="Times,serif" font-size="14.00">Division</text>
<polyline fill="none" stroke="black" points="720.5,-324 861.5,-324 "/>
<text text-anchor="start" x="728.5" y="-308.8" font-family="Times,serif" font-size="14.00">id :INTEGER</text>
<text text-anchor="start" x="728.5" y="-293.8" font-family="Times,serif" font-size="14.00">divisionName :varchar</text>
</g>
<!-- User -->
<g id="node6" class="node"><title>User</title>
<path fill="none" stroke="black" d="M244.5,-233.5C244.5,-233.5 375.5,-233.5 375.5,-233.5 381.5,-233.5 387.5,-239.5 387.5,-245.5 387.5,-245.5 387.5,-387.5 387.5,-387.5 387.5,-393.5 381.5,-399.5 375.5,-399.5 375.5,-399.5 244.5,-399.5 244.5,-399.5 238.5,-399.5 232.5,-393.5 232.5,-387.5 232.5,-387.5 232.5,-245.5 232.5,-245.5 232.5,-239.5 238.5,-233.5 244.5,-233.5"/>
<text text-anchor="middle" x="310" y="-384.3" font-family="Times,serif" font-size="14.00">User</text>
<polyline fill="none" stroke="black" points="232.5,-376.5 387.5,-376.5 "/>
<text text-anchor="start" x="240.5" y="-361.3" font-family="Times,serif" font-size="14.00">id :INTEGER</text>
<text text-anchor="start" x="240.5" y="-346.3" font-family="Times,serif" font-size="14.00">email :varchar</text>
<text text-anchor="start" x="240.5" y="-331.3" font-family="Times,serif" font-size="14.00">created_at :datetime</text>
<text text-anchor="start" x="240.5" y="-316.3" font-family="Times,serif" font-size="14.00">updated_at :datetime</text>
<text text-anchor="start" x="240.5" y="-301.3" font-family="Times,serif" font-size="14.00">firstName :varchar</text>
<text text-anchor="start" x="240.5" y="-286.3" font-family="Times,serif" font-size="14.00">lastName :varchar</text>
<text text-anchor="start" x="240.5" y="-271.3" font-family="Times,serif" font-size="14.00">phoneNumber :varchar</text>
<text text-anchor="start" x="240.5" y="-256.3" font-family="Times,serif" font-size="14.00">password_digest :varchar</text>
<text text-anchor="start" x="240.5" y="-241.3" font-family="Times,serif" font-size="14.00">isAdmin :boolean</text>
</g>
<!-- User&#45;&gt;Application -->
<g id="edge1" class="edge"><title>User&#45;&gt;Application</title>
<path fill="none" stroke="#82d824" d="M310,-225.059C310,-219.068 310,-213.003 310,-206.94"/>
<ellipse fill="none" stroke="#82d824" cx="310" cy="-229.223" rx="4" ry="4"/>
<polygon fill="#82d824" stroke="#82d824" points="310,-206.753 314.5,-196.753 310,-201.753 310,-196.753 310,-196.753 310,-196.753 310,-201.753 305.5,-196.753 310,-206.753 310,-206.753"/>
</g>
</g>
</svg>
